HIERARCHY
ROOT Hips
{
  OFFSET 7.333 -26.027 -164.856
  CHANNELS 6 Xposition Yposition Zposition Zrotation Xrotation Yrotation
  JOINT LeftUpLeg
  {
    OFFSET 10.092 0.000 0.000
    CHANNELS 3 Zrotation Xrotation Yrotation
    JOINT LeftLeg
    {
      OFFSET 0.000 -38.160 -0.000
    CHANNELS 3 Zrotation Xrotation Yrotation
      JOINT LeftFoot
      {
        OFFSET -0.000 -24.040 0.000
    CHANNELS 3 Zrotation Xrotation Yrotation
        End Site
        {
          OFFSET -0.000 0.000 12.945
        }
      }
    }
  }
  JOINT RightUpLeg
  {
    OFFSET -10.092 -0.000 0.000
    CHANNELS 3 Zrotation Xrotation Yrotation
    JOINT RightLeg
    {
      OFFSET 0.000 -33.046 0.000
    CHANNELS 3 Zrotation Xrotation Yrotation
      JOINT RightFoot
      {
        OFFSET 0.000 -22.031 -0.000
    CHANNELS 3 Zrotation Xrotation Yrotation
        End Site
        {
          OFFSET 0.000 -0.000 11.863
        }
      }
    }
  }
  JOINT Spine
  {
    OFFSET -0.000 16.511 0.000
    CHANNELS 3 Zrotation Xrotation Yrotation
    JOINT LeftShoulder
    {
      OFFSET 0 16.511 0
    CHANNELS 3 Zrotation Xrotation Yrotation
      JOINT LeftArm
      {
        OFFSET 16.337 0.000 0.000
    CHANNELS 3 Zrotation Xrotation Yrotation
        JOINT LeftForeArm
        {
          OFFSET 0.000 -24.030 0.000
    CHANNELS 3 Zrotation Xrotation Yrotation
          JOINT LeftHand
          {
            OFFSET 0.000 -17.629 -0.000
    CHANNELS 3 Zrotation Xrotation Yrotation
            End Site
            {
              OFFSET 0.000 -11.753 -0.000
            }
          }
        }
      }
    }
    JOINT RightShoulder
    {
      OFFSET 0 16.511 0
    CHANNELS 3 Zrotation Xrotation Yrotation
      JOINT RightArm
      {
        OFFSET -16.337 0.000 0.000
    CHANNELS 3 Zrotation Xrotation Yrotation
        JOINT RightForeArm
        {
          OFFSET -0.000 -19.534 0.000
    CHANNELS 3 Zrotation Xrotation Yrotation
          JOINT RightHand
          {
            OFFSET 0.000 -19.514 -0.000
    CHANNELS 3 Zrotation Xrotation Yrotation
            End Site
            {
              OFFSET 0.000 -13.010 -0.000
            }
          }
        }
      }
    }
    JOINT Neck
    {
      OFFSET -0.000 16.511 0.000
    CHANNELS 3 Zrotation Xrotation Yrotation
      JOINT Head
      {
        OFFSET -0.000 12.493 -0.000
    CHANNELS 3 Zrotation Xrotation Yrotation
        End Site
        {
          OFFSET -0.000 8.328 -0.000
        }
      }
    }
  }
}
MOTION
Frames: 15
Frame Time: 0.0333333
0 0 0 -1.640810e-01 3.994660e-01 -7.301310e+00 -2.160880e+00 1.176870e+01 4.409400e-01 9.058860e+00 -1.695520e+01 2.033980e+00 0 0 -3.308722e-24 2.526370e-01 1.298080e+01 -5.674500e-02 6.183050e-01 -2.079010e+01 3.068590e-01 0 1.000000e-06 1.000000e-06 0 0 -6.400000e-05 0 0 0 5.847010e+00 -5.035230e+01 -8.147840e+01 1.123430e+02 -2.500630e+01 1.259660e+02 0 0 -1.000000e-06 0 0 0 7.166180e+00 -4.948850e+01 9.955640e+01 -1.061580e+02 -2.279400e+01 -1.341610e+02 0 0 -1.000000e-06 -1.276750e-01 -4.708120e-01 -1.051000e-03 0 0 0 
0 0 0 -4.967610e-01 4.742850e-01 -9.064802e+00 -1.810040e+00 1.157890e+01 3.634220e-01 8.895170e+00 -1.628150e+01 2.006210e+00 0 0 -3.308722e-24 6.833690e-01 1.209740e+01 -1.432220e-01 5.458430e-01 -1.902650e+01 3.958340e-01 0 0 1.000000e-06 0 0 -1.000000e-05 0 0 0 1.755220e+01 -4.662990e+01 -6.418560e+01 1.158670e+02 -2.167200e+01 1.341860e+02 0 0 2.000000e-06 0 0 0 3.235150e-01 -5.133800e+01 9.152790e+01 -1.080770e+02 -1.551170e+01 -1.486120e+02 0 0 1.000000e-06 2.901600e-02 2.184120e-01 -1.110000e-04 0 0 -1.000000e-06 
0 0 0 4.712960e-01 2.553600e-01 -1.002910e+01 -2.963930e+00 1.156710e+01 5.947860e-01 8.916690e+00 -1.619170e+01 1.682430e+00 0 -1.795841e-08 -1.603666e-08 -3.809470e-01 1.101390e+01 7.274300e-02 5.512800e-01 -1.742260e+01 5.309400e-02 0 -3.308722e-24 6.617445e-24 3.211991e-08 -9.503696e-09 -4.300000e-05 0 0 0 2.822170e+01 -3.840000e+01 -4.480560e+01 1.167110e+02 -1.526020e+01 1.423730e+02 1.115760e-08 -1.162325e-07 8.738739e-07 0 0 0 -1.477580e+01 -5.016090e+01 7.373870e+01 -1.105430e+02 -7.569190e+00 -1.685360e+02 2.435724e-08 3.610108e-09 1.606838e-06 2.456390e-01 1.216490e-01 -5.220000e-04 0 0 -2.800000e-08 
0 0 0 1.060580e+00 -3.025659e-02 -9.616407e+00 -4.335380e+00 1.340781e+01 1.007770e+00 9.234294e+00 -1.865650e+01 1.609720e+00 0 NaN -3.168195e-08 -1.906140e+00 1.334597e+01 4.403580e-01 1.336858e+00 -2.113190e+01 -1.818140e-01 0 -1.199658e-08 -7.405218e-08 2.184920e-08 -9.491922e-09 -7.300000e-05 0 0 0 3.439330e+01 -2.899637e+01 -2.889560e+01 1.122395e+02 -6.883520e+00 1.496725e+02 4.412110e-08 -8.242135e-08 1.654361e-23 0 0 0 -2.996653e+01 -4.022342e+01 5.309503e+01 -1.119030e+02 -9.436593e-01 1.706028e+02 2.860281e-08 6.877980e-09 NaN 9.160656e-02 2.426960e-01 -4.140844e-04 0 0 1.957813e-07 
0 0 0 9.380340e-01 6.481598e-01 -9.082330e+00 -3.930670e+00 1.216400e+01 8.294400e-01 9.009265e+00 -1.779469e+01 1.582805e+00 0 -5.806997e-09 6.706864e-08 -1.639160e+00 1.258480e+01 3.572050e-01 1.408285e+00 -2.106130e+01 -6.824000e-02 0 -1.668636e-08 NaN 1.566941e-08 -7.894831e-09 -2.301046e-05 0 0 0 3.636780e+01 -1.948624e+01 -1.625317e+01 1.042750e+02 -3.447190e-01 1.546675e+02 1.937367e-07 -1.168631e-07 1.972162e-08 0 0 0 -3.562366e+01 -2.831108e+01 4.027537e+01 -1.114930e+02 7.390851e+00 1.531236e+02 2.860613e-08 2.999705e-08 NaN 4.787900e-02 5.544671e-01 -6.002923e-04 0 0 NaN 
0 0 0 8.826093e-01 1.156527e+00 -9.456068e+00 -3.726236e+00 1.142930e+01 7.394070e-01 8.943639e+00 -1.746280e+01 1.591891e+00 0 -5.106024e-09 NaN -1.516650e+00 1.168330e+01 3.071960e-01 1.588630e+00 -2.011890e+01 3.543030e-02 0 -3.446846e-08 NaN 1.397563e-07 -5.687868e-09 3.500000e-05 0 0 0 3.818726e+01 -9.559149e+00 -2.849316e+00 9.257876e+01 -6.843140e-01 1.036620e+02 NaN NaN 1.644179e-07 0 0 0 -3.849150e+01 -2.057170e+01 3.173333e+01 -1.048001e+02 1.373089e+01 1.312854e+02 1.023611e-08 1.485712e-07 1.935148e-08 2.417670e-01 8.371050e-01 -3.428832e-03 0 0 NaN 
0 0 0 6.371185e-01 1.735847e+00 -9.842580e+00 -3.408556e+00 1.032710e+01 6.108307e-01 8.893529e+00 -1.604880e+01 1.535547e+00 0 -6.105110e-09 NaN -1.314530e+00 1.107810e+01 2.526640e-01 1.928440e+00 -2.038470e+01 2.223800e-01 0 1.084511e-07 7.286269e-09 4.545455e-08 -1.939924e-08 2.100000e-05 0 0 0 3.743775e+01 -1.850060e+00 7.121820e+00 8.827753e+01 -7.445640e+00 8.165400e+01 NaN NaN NaN 0 0 0 -3.866159e+01 -1.523570e+01 2.677448e+01 -1.019500e+02 1.550756e+01 1.220475e+02 1.986071e-08 NaN -2.164229e-07 -7.290080e-02 1.199810e+00 1.356133e-03 0 0 1.101739e-08 
0 0 0 9.291150e-01 2.041562e+00 -9.855881e+00 -3.322140e+00 1.049260e+01 6.056100e-01 8.322205e+00 -1.699884e+01 1.478250e+00 0 -1.492783e-08 -2.153480e-08 -1.251710e+00 1.041710e+01 2.263190e-01 1.286260e+00 -1.984270e+01 1.872600e-02 0 NaN 1.328636e-07 NaN NaN -4.400000e-05 0 0 0 3.598713e+01 2.108310e+00 1.264280e+01 8.920570e+01 -1.019970e+01 8.786920e+01 -2.628401e-08 -1.480029e-07 NaN 0 0 0 -3.660333e+01 -1.190820e+01 2.474851e+01 -1.022300e+02 1.416850e+01 1.238967e+02 1.519803e-07 NaN NaN 2.400551e-01 1.475985e+00 -5.940786e-03 0 0 -1.266821e-07 
0 0 0 1.006300e+00 1.895032e+00 -9.410440e+00 -4.065270e+00 1.041836e+01 7.366982e-01 9.269960e+00 -1.736690e+01 1.576580e+00 0 NaN 7.202977e-08 -1.547247e+00 9.692715e+00 2.582910e-01 1.077380e+00 -1.821510e+01 -1.401910e-01 0 NaN NaN 7.580285e-08 -2.125367e-08 -1.150000e-04 0 0 0 3.537023e+01 1.606370e+00 1.215850e+01 9.063105e+01 -1.017438e+01 9.294440e+01 9.800786e-09 NaN -5.076609e-08 0 0 0 -3.822635e+01 -1.280896e+01 2.443112e+01 -1.006310e+02 1.534552e+01 1.209114e+02 NaN -3.018721e-07 NaN -7.656700e-02 1.438126e+00 1.922000e-03 0 0 NaN 
0 0 0 9.344472e-01 1.517751e+00 -9.080020e+00 -4.076174e+00 1.122339e+01 7.943593e-01 9.587584e+00 -1.777395e+01 1.711960e+00 0 3.308722e-24 NaN -1.584561e+00 1.063268e+01 2.919617e-01 1.334514e+00 -1.880328e+01 -6.980000e-02 0 -3.928497e-08 NaN 6.411698e-08 -1.903633e-08 -9.700000e-05 0 0 0 3.790258e+01 -1.879143e+00 7.067882e+00 9.121612e+01 -6.197323e+00 9.505890e+01 3.687527e-08 NaN 3.734621e-08 0 0 0 -3.782506e+01 -1.623740e+01 2.815767e+01 -1.016260e+02 1.686777e+01 1.227924e+02 NaN NaN -1.401117e-07 1.672316e-01 1.248024e+00 -3.444000e-03 0 0 NaN 
0 0 0 7.290810e-01 1.618741e+00 -9.147540e+00 -3.548820e+00 1.162180e+01 7.157920e-01 9.541350e+00 -1.880470e+01 1.961700e+00 0 -1.253540e-08 NaN -1.092020e+00 1.149610e+01 2.176670e-01 1.064330e+00 -2.095090e+01 -2.068000e-03 0 NaN 2.866245e-08 5.558654e-22 NaN -3.500000e-05 0 0 0 4.189770e+01 -7.326050e+00 5.031530e-01 9.250950e+01 1.558790e+00 1.136090e+02 -3.611164e-08 -1.687480e-07 NaN 0 0 0 -3.662485e+01 -2.099946e+01 3.336044e+01 -1.054820e+02 1.579180e+01 1.281062e+02 5.572069e-08 NaN NaN 3.019730e-01 1.092400e+00 -5.757000e-03 0 0 -4.172922e-09 
0 0 0 8.367620e-01 1.615413e+00 -8.768426e+00 -3.006570e+00 1.076990e+01 5.623240e-01 8.464710e+00 -1.795570e+01 1.703740e+00 0 NaN -8.114076e-09 -6.368830e-01 1.106447e+01 1.222300e-01 2.755471e-01 -2.093710e+01 -1.260040e-01 0 NaN 1.815595e-07 1.355376e-07 -1.847976e-08 -7.692833e-05 0 0 0 4.059871e+01 -1.499040e+01 -8.558317e+00 1.003600e+02 5.117710e+00 1.765260e+02 1.504608e-07 NaN 6.733820e-08 0 0 0 -3.338721e+01 -2.774742e+01 4.207829e+01 -1.096780e+02 1.503373e+01 1.362785e+02 NaN 1.029480e-07 NaN 3.780126e-01 1.193871e+00 -7.162000e-03 0 0 -3.974368e-08 
0 0 0 8.018800e-01 1.586659e+00 -8.407970e+00 -3.339270e+00 1.152940e+01 6.681520e-01 8.904270e+00 -1.949230e+01 1.884479e+00 0 NaN -9.236797e-09 -8.672836e-01 1.091514e+01 1.640580e-01 6.234880e-01 -1.985920e+01 -7.716800e-02 0 -4.571579e-08 NaN 1.075207e-07 -1.319789e-08 -6.600000e-05 0 0 0 3.919259e+01 -2.244991e+01 -1.762530e+01 1.067136e+02 1.232670e+00 1.641110e+02 NaN NaN -1.129285e-07 0 0 0 -3.033163e+01 -3.663637e+01 5.070483e+01 -1.102491e+02 1.087749e+01 1.461512e+02 7.479224e-08 NaN 6.476118e-08 NaN 1.322450e+00 -4.264000e-03 0 0 1.964881e-08 
0 0 0 8.659010e-01 1.236371e+00 -9.298398e+00 -4.179290e+00 1.152015e+01 8.361360e-01 9.756080e+00 -1.891320e+01 1.840340e+00 0 -2.169295e-08 -1.677493e-07 -1.552420e+00 1.114531e+01 2.998880e-01 1.289408e+00 -2.013530e+01 -8.012973e-02 0 -6.105062e-08 NaN 1.015162e-08 -1.544570e-08 3.200000e-05 0 0 0 3.529610e+01 -2.862951e+01 -2.761587e+01 1.125194e+02 -6.812790e+00 1.500864e+02 NaN -3.322329e-07 NaN 0 0 0 -2.246640e+01 -4.552186e+01 6.357405e+01 -1.092055e+02 1.884354e+00 1.650519e+02 NaN NaN 9.846107e-08 -5.522611e-02 1.395730e+00 -2.626000e-03 0 0 5.986921e-08 
0 0 0 9.444280e-01 6.382576e-01 -8.532414e+00 -4.147711e+00 1.229337e+01 8.842480e-01 9.451827e+00 -1.971720e+01 1.826603e+00 0 NaN NaN -1.486187e+00 1.120728e+01 2.888824e-01 1.001526e+00 -1.960490e+01 -1.533661e-01 0 NaN 3.918187e-08 1.040794e-07 -1.955317e-08 8.300000e-05 0 0 0 2.864264e+01 -3.633737e+01 -4.222280e+01 1.154930e+02 -1.540829e+01 1.402187e+02 -3.571448e-09 NaN 9.055791e-08 0 0 0 -6.893163e+00 -5.450370e+01 8.315835e+01 -1.048560e+02 -7.705413e+00 -6.119059e+01 1.666667e-07 -6.750912e-08 -1.970055e-07 -1.793755e-01 1.316899e+00 2.633000e-03 0 0 1.508697e-07 
